{"title":"The Musketeers S01E02 Sleight Of Hand HDTV x264 AAC E-Subs [GWC]","uid":9529650,"size":190653855,"categoryP":"video","categoryS":"tv_shows","magnet":"?xt=urn:btih:e9f2753fe2aa75920bd057517b4aec83fbc5209c&amp;dn=The+Musketeers+S01E02+Sleight+Of+Hand+HDTV+x264+AAC+E-Subs+%5BGWC%5D&amp;tr=udp%3A%2F%2Ftracker.openbittorrent.com%3A80&amp;tr=udp%3A%2F%2Fopen.demonii.com%3A1337&amp;tr=udp%3A%2F%2Ftracker.coppersurfer.tk%3A6969&amp;tr=udp%3A%2F%2Fexodus.desync.com%3A6969","seeders":1,"leechers":0,"uploader":"canc232","files":1,"time":1390819622,"description":"The Musketeers S01E02 Sleight Of Hand HDTV x264 AAC E-Subs [GWC]\n\n\nSCREENS : &lt;a href=&quot;\nhttp://imageshack.com/a/img560/3624/h46o.jpg&quot; rel=&quot;nofollow&quot; target=&quot;_NEW&quot;&gt;\nhttp://imageshack.com/a/img560/3624/h46o.jpg&lt;/a&gt; &lt;a href=&quot;\nhttp://imageshack.com/a/img824/5186/uskg.jpg&quot; rel=&quot;nofollow&quot; target=&quot;_NEW&quot;&gt;\nhttp://imageshack.com/a/img824/5186/uskg.jpg&lt;/a&gt; &lt;a href=&quot;\nhttp://imageshack.com/a/img543/2047/w896.jpg&quot; rel=&quot;nofollow&quot; target=&quot;_NEW&quot;&gt;\nhttp://imageshack.com/a/img543/2047/w896.jpg&lt;/a&gt;\n\n\nMEDIA INFO :\nGeneral \nFormat : MPEG-4 \nFormat profile : Base Media \nFile size : 182 MiB \nDuration : 54mn 33s \nOverall bit rate mode : Variable \nOverall bit rate : 466 Kbps \n\nVideo \nFormat : AVC \nFormat profile : &lt;a class=&quot;__cf_email__&quot; href=&quot;/cdn-cgi/l/email-protection&quot; data-cfemail=&quot;3e765759567e720d100e&quot;&gt;[email&amp;#160;protected]&lt;/a&gt;&lt;script cf-hash='f9e31' type=&quot;text/javascript&quot;&gt;\n/* &lt;![CDATA[ */!function(){try{var t=&quot;currentScript&quot;in document?document.currentScript:function(){for(var t=document.getElementsByTagName(&quot;script&quot;),e=t.length;e--;)if(t[e].getAttribute(&quot;cf-hash&quot;))return t[e]}();if(t&amp;&amp;t.previousSibling){var e,r,n,i,c=t.previousSibling,a=c.getAttribute(&quot;data-cfemail&quot;);if(a){for(e=&quot;&quot;,r=parseInt(a.substr(0,2),16),n=2;a.length-n;n+=2)i=parseInt(a.substr(n,2),16)^r,e+=String.fromCharCode(i);e=document.createTextNode(e),c.parentNode.replaceChild(e,c)}}}catch(u){}}();/* ]]&gt; */&lt;/script&gt; \nFormat settings, CABAC : Yes \nFormat settings, ReFrames : 4 frames \nDuration : 54mn 33s \nBit rate : 403 Kbps \nMaximum bit rate : 2 610 Kbps \nWidth : 720 pixels \nHeight : 404 pixels \nDisplay aspect ratio : 16:9 \nFrame rate : 25.000 fps \nStream size : 157 MiB (86%) \nTitle : The Musketeers 1x02 Sleight Of Hand HDTV x264 AAC E-Subs [GWC] \nWriting library : x264 core\n\nAudio \nFormat : AAC \nFormat profile : HE-AAC / LC \nDuration : 54mn 33s \nBit rate mode : Variable \nChannel(s) : 2 channels \nSampling rate : 48.0 KHz / 24.0 KHz \nStream size : 23.4 MiB (13%) \nLanguage : English \n\nText \nFormat : Timed Text \nDuration : 54mn 15s \nBit rate mode : Variable \nStream size : 22.8 KiB (0%) \nLanguage : English ","torrent":{"xt":"urn:btih:e9f2753fe2aa75920bd057517b4aec83fbc5209c","amp;dn":"The+Musketeers+S01E02+Sleight+Of+Hand+HDTV+x264+AAC+E-Subs+%5BGWC%5D","amp;tr":["udp%3A%2F%2Ftracker.openbittorrent.com%3A80","udp%3A%2F%2Fopen.demonii.com%3A1337","udp%3A%2F%2Ftracker.coppersurfer.tk%3A6969","udp%3A%2F%2Fexodus.desync.com%3A6969"],"infoHash":"e9f2753fe2aa75920bd057517b4aec83fbc5209c","infoHashBuffer":{"type":"Buffer","data":[233,242,117,63,226,170,117,146,11,208,87,81,123,74,236,131,251,197,32,156]},"announce":[],"urlList":[]}}